<?xml version="1.0"?>

<svg width="100%" height="100%" viewBox="0 0 211 183" version="1.1" xmlns="http://www.w3.org/2000/svg" xmlns:xlink="http://www.w3.org/1999/xlink" xml:space="preserve" xmlns:serif="http://www.serif.com/" style="fill-rule:evenodd;clip-rule:evenodd;stroke-linecap:round;stroke-linejoin:round;stroke-miterlimit:1.5;">
    <g transform="matrix(1,0,0,1,-403.5,-122.5)">
        <g transform="matrix(1,0,0,1,-53,95)">
            <path d="M457,33L459,28L530,29L532,37L604,42L606,48L610,48L610,41L612,34L619,37L626,38C626,38 627.385,62.733 636,79C644.615,95.267 652,107 652,107L649,116L655,128L658,144C658,144 665.912,156.165 666,162C666.088,167.835 663,190 663,190L663,194L659,192L656,201L655,205L651,209L641,209L637,210L633,207L635,203C635,203 635.79,198.397 630,193C624.21,187.603 618,188 618,188L614,172L610,168L612,156L608,155L605,159L602,156L596,143L592,138L599,129L599,124L594,122L592,126L595,129L591,131L587,126L590,117L588,114L594,107L594,98L588,86L582,86L578,78L574,75L572,71L562,59L553,58L548,58L547,63L538,66L533,69L528,69L523,70L520,66L517,60L510,53L507,48L499,47L493,42L488,46L481,47L474,47L477,43L472,44L467,49L462,51L464,42L457,33Z" style="fill:none;stroke:black;stroke-width:1px;"></path>
        </g>
    </g>
</svg>